<svg xmlns="http://www.w3.org/2000/svg" xmlns:xlink="http://www.w3.org/1999/xlink" version="1.1" width="256" height="256" viewBox="0 0 256 256" xml:space="preserve">
<desc>Created with Fabric.js 1.7.22</desc>
<defs>
</defs>
<g transform="translate(128 128) scale(0.72 0.72)" style="">
	<g style="stroke: none; stroke-width: 0; stroke-dasharray: none; stroke-linecap: butt; stroke-linejoin: miter; stroke-miterlimit: 10; fill: none; fill-rule: nonzero; opacity: 1;" transform="translate(-175.05 -175.05000000000004) scale(3.89 3.89)" >
	<path d="M 86.194 75.99 H 3.806 C 2.256 75.99 1 74.734 1 73.184 V 16.816 c 0 -1.55 1.256 -2.806 2.806 -2.806 h 82.388 c 1.55 0 2.806 1.256 2.806 2.806 v 56.368 C 89 74.734 87.744 75.99 86.194 75.99 z" style="stroke: none; stroke-width: 1; stroke-dasharray: none; stroke-linecap: butt; stroke-linejoin: miter; stroke-miterlimit: 10; fill: rgb(224,134,68); fill-rule: nonzero; opacity: 1;" transform=" matrix(1 0 0 1 0 0) " stroke-linecap="round" />
	<path d="M 81.279 70.019 H 8.721 c -0.967 0 -1.75 -0.784 -1.75 -1.75 V 21.731 c 0 -0.967 0.784 -1.75 1.75 -1.75 h 72.558 c 0.967 0 1.75 0.784 1.75 1.75 v 46.538 C 83.029 69.236 82.246 70.019 81.279 70.019 z" style="stroke: none; stroke-width: 1; stroke-dasharray: none; stroke-linecap: butt; stroke-linejoin: miter; stroke-miterlimit: 10; fill: rgb(62,116,193); fill-rule: nonzero; opacity: 1;" transform=" matrix(1 0 0 1 0 0) " stroke-linecap="round" />
	<path d="M 86.194 76.99 H 3.806 C 1.708 76.99 0 75.282 0 73.184 V 16.816 c 0 -2.099 1.708 -3.806 3.806 -3.806 h 82.388 c 2.099 0 3.806 1.707 3.806 3.806 v 56.368 C 90 75.282 88.293 76.99 86.194 76.99 z M 3.806 15.01 C 2.81 15.01 2 15.82 2 16.816 v 56.368 c 0 0.996 0.81 1.807 1.806 1.807 h 82.388 C 87.19 74.99 88 74.18 88 73.184 V 16.816 c 0 -0.996 -0.81 -1.806 -1.806 -1.806 H 3.806 z" style="stroke: none; stroke-width: 1; stroke-dasharray: none; stroke-linecap: butt; stroke-linejoin: miter; stroke-miterlimit: 10; fill: rgb(0,0,0); fill-rule: nonzero; opacity: 1;" transform=" matrix(1 0 0 1 0 0) " stroke-linecap="round" />
	<path d="M 81.279 71.02 H 8.721 c -1.516 0 -2.75 -1.234 -2.75 -2.751 V 21.731 c 0 -1.517 1.234 -2.75 2.75 -2.75 h 72.559 c 1.517 0 2.75 1.234 2.75 2.75 v 46.538 C 84.029 69.785 82.796 71.02 81.279 71.02 z M 8.721 20.98 c -0.414 0 -0.75 0.337 -0.75 0.75 v 46.538 c 0 0.414 0.336 0.751 0.75 0.751 h 72.559 c 0.413 0 0.75 -0.337 0.75 -0.751 V 21.731 c 0 -0.414 -0.337 -0.75 -0.75 -0.75 H 8.721 z" style="stroke: none; stroke-width: 1; stroke-dasharray: none; stroke-linecap: butt; stroke-linejoin: miter; stroke-miterlimit: 10; fill: rgb(0,0,0); fill-rule: nonzero; opacity: 1;" transform=" matrix(1 0 0 1 0 0) " stroke-linecap="round" />
	<path d="M 61.418 28.143 h -5.23 c -0.408 0 -0.738 0.33 -0.738 0.738 v 26.124 c 0 0.408 0.33 0.738 0.738 0.738 h 19.624 c 0.408 0 0.738 -0.331 0.738 -0.738 V 28.881 c 0 -0.408 -0.33 -0.738 -0.738 -0.738 h -5.23" style="stroke: none; stroke-width: 1; stroke-dasharray: none; stroke-linecap: butt; stroke-linejoin: miter; stroke-miterlimit: 10; fill: rgb(249,249,249); fill-rule: nonzero; opacity: 1;" transform=" matrix(1 0 0 1 0 0) " stroke-linecap="round" />
	<path d="M 60.368 34.894 h -0.364 c -0.553 0 -1 -0.448 -1 -1 s 0.447 -1 1 -1 h 0.364 c 0.553 0 1 0.448 1 1 S 60.921 34.894 60.368 34.894 z" style="stroke: none; stroke-width: 1; stroke-dasharray: none; stroke-linecap: butt; stroke-linejoin: miter; stroke-miterlimit: 10; fill: rgb(0,0,0); fill-rule: nonzero; opacity: 1;" transform=" matrix(1 0 0 1 0 0) " stroke-linecap="round" />
	<path d="M 60.368 40.26 h -0.364 c -0.553 0 -1 -0.448 -1 -1 s 0.447 -1 1 -1 h 0.364 c 0.553 0 1 0.448 1 1 S 60.921 40.26 60.368 40.26 z" style="stroke: none; stroke-width: 1; stroke-dasharray: none; stroke-linecap: butt; stroke-linejoin: miter; stroke-miterlimit: 10; fill: rgb(0,0,0); fill-rule: nonzero; opacity: 1;" transform=" matrix(1 0 0 1 0 0) " stroke-linecap="round" />
	<path d="M 60.368 45.626 h -0.364 c -0.553 0 -1 -0.448 -1 -1 s 0.447 -1 1 -1 h 0.364 c 0.553 0 1 0.448 1 1 S 60.921 45.626 60.368 45.626 z" style="stroke: none; stroke-width: 1; stroke-dasharray: none; stroke-linecap: butt; stroke-linejoin: miter; stroke-miterlimit: 10; fill: rgb(0,0,0); fill-rule: nonzero; opacity: 1;" transform=" matrix(1 0 0 1 0 0) " stroke-linecap="round" />
	<path d="M 60.368 50.993 h -0.364 c -0.553 0 -1 -0.447 -1 -1 s 0.447 -1 1 -1 h 0.364 c 0.553 0 1 0.447 1 1 S 60.921 50.993 60.368 50.993 z" style="stroke: none; stroke-width: 1; stroke-dasharray: none; stroke-linecap: butt; stroke-linejoin: miter; stroke-miterlimit: 10; fill: rgb(0,0,0); fill-rule: nonzero; opacity: 1;" transform=" matrix(1 0 0 1 0 0) " stroke-linecap="round" />
	<path d="M 71.996 34.894 H 65.37 c -0.553 0 -1 -0.448 -1 -1 s 0.447 -1 1 -1 h 6.626 c 0.553 0 1 0.448 1 1 S 72.549 34.894 71.996 34.894 z" style="stroke: none; stroke-width: 1; stroke-dasharray: none; stroke-linecap: butt; stroke-linejoin: miter; stroke-miterlimit: 10; fill: rgb(0,0,0); fill-rule: nonzero; opacity: 1;" transform=" matrix(1 0 0 1 0 0) " stroke-linecap="round" />
	<path d="M 71.996 40.26 H 65.37 c -0.553 0 -1 -0.448 -1 -1 s 0.447 -1 1 -1 h 6.626 c 0.553 0 1 0.448 1 1 S 72.549 40.26 71.996 40.26 z" style="stroke: none; stroke-width: 1; stroke-dasharray: none; stroke-linecap: butt; stroke-linejoin: miter; stroke-miterlimit: 10; fill: rgb(0,0,0); fill-rule: nonzero; opacity: 1;" transform=" matrix(1 0 0 1 0 0) " stroke-linecap="round" />
	<path d="M 71.996 45.626 H 65.37 c -0.553 0 -1 -0.448 -1 -1 s 0.447 -1 1 -1 h 6.626 c 0.553 0 1 0.448 1 1 S 72.549 45.626 71.996 45.626 z" style="stroke: none; stroke-width: 1; stroke-dasharray: none; stroke-linecap: butt; stroke-linejoin: miter; stroke-miterlimit: 10; fill: rgb(0,0,0); fill-rule: nonzero; opacity: 1;" transform=" matrix(1 0 0 1 0 0) " stroke-linecap="round" />
	<path d="M 71.996 50.993 H 65.37 c -0.553 0 -1 -0.447 -1 -1 s 0.447 -1 1 -1 h 6.626 c 0.553 0 1 0.447 1 1 S 72.549 50.993 71.996 50.993 z" style="stroke: none; stroke-width: 1; stroke-dasharray: none; stroke-linecap: butt; stroke-linejoin: miter; stroke-miterlimit: 10; fill: rgb(0,0,0); fill-rule: nonzero; opacity: 1;" transform=" matrix(1 0 0 1 0 0) " stroke-linecap="round" />
	<path d="M 66.082 29.257 h -0.164 c -0.553 0 -1 -0.448 -1 -1 s 0.447 -1 1 -1 h 0.164 c 0.553 0 1 0.448 1 1 S 66.635 29.257 66.082 29.257 z" style="stroke: none; stroke-width: 1; stroke-dasharray: none; stroke-linecap: butt; stroke-linejoin: miter; stroke-miterlimit: 10; fill: rgb(0,0,0); fill-rule: nonzero; opacity: 1;" transform=" matrix(1 0 0 1 0 0) " stroke-linecap="round" />
	<path d="M 75.813 56.743 H 56.188 c -0.958 0 -1.737 -0.779 -1.737 -1.737 V 28.881 c 0 -0.958 0.779 -1.738 1.737 -1.738 h 5.23 c 0.553 0 1 0.448 1 1 s -0.447 1 -1 1 H 56.45 v 25.6 h 19.1 v -25.6 h -4.968 c -0.553 0 -1 -0.448 -1 -1 s 0.447 -1 1 -1 h 5.23 c 0.958 0 1.737 0.78 1.737 1.738 v 26.125 C 77.55 55.964 76.771 56.743 75.813 56.743 z" style="stroke: none; stroke-width: 1; stroke-dasharray: none; stroke-linecap: butt; stroke-linejoin: miter; stroke-miterlimit: 10; fill: rgb(0,0,0); fill-rule: nonzero; opacity: 1;" transform=" matrix(1 0 0 1 0 0) " stroke-linecap="round" />
	<path d="M 31.874 49.231 l -2.356 -0.917 c -0.297 -0.116 -0.632 0.031 -0.748 0.329 l -3.728 9.573 c -0.116 0.297 0.031 0.632 0.329 0.748 l 11.396 4.438 c 0.297 0.116 0.632 -0.031 0.748 -0.329 l 3.728 -9.573 c 0.116 -0.297 -0.031 -0.632 -0.329 -0.748 l -2.356 -0.917" style="stroke: none; stroke-width: 1; stroke-dasharray: none; stroke-linecap: butt; stroke-linejoin: miter; stroke-miterlimit: 10; fill: rgb(239,217,106); fill-rule: nonzero; opacity: 1;" transform=" matrix(1 0 0 1 0 0) " stroke-linecap="round" />
	<path d="M 35.243 51.639 c -0.121 0 -0.245 -0.022 -0.364 -0.069 l -0.12 -0.047 c -0.514 -0.201 -0.768 -0.781 -0.566 -1.296 c 0.202 -0.513 0.783 -0.766 1.296 -0.565 l 0.12 0.047 c 0.514 0.201 0.768 0.781 0.566 1.296 C 36.02 51.397 35.643 51.639 35.243 51.639 z" style="stroke: none; stroke-width: 1; stroke-dasharray: none; stroke-linecap: butt; stroke-linejoin: miter; stroke-miterlimit: 10; fill: rgb(0,0,0); fill-rule: nonzero; opacity: 1;" transform=" matrix(1 0 0 1 0 0) " stroke-linecap="round" />
	<path d="M 36.974 64.44 c -0.189 0 -0.382 -0.034 -0.568 -0.106 l -11.397 -4.439 c -0.811 -0.316 -1.213 -1.233 -0.897 -2.043 l 3.728 -9.572 c 0.152 -0.393 0.449 -0.702 0.836 -0.872 c 0.386 -0.171 0.815 -0.178 1.208 -0.025 l 2.355 0.917 c 0.515 0.2 0.77 0.779 0.569 1.294 c -0.201 0.515 -0.78 0.771 -1.295 0.569 l -1.962 -0.764 l -3.422 8.786 l 10.609 4.132 l 3.422 -8.786 l -1.963 -0.765 c -0.514 -0.2 -0.769 -0.78 -0.568 -1.295 c 0.2 -0.515 0.778 -0.771 1.295 -0.568 l 2.356 0.918 c 0.392 0.151 0.702 0.448 0.872 0.835 c 0.169 0.386 0.178 0.814 0.026 1.207 l -3.729 9.573 C 38.204 64.059 37.605 64.44 36.974 64.44 z M 40.551 53.684 c 0 0 0.001 0.001 0.001 0.001 L 40.551 53.684 z" style="stroke: none; stroke-width: 1; stroke-dasharray: none; stroke-linecap: butt; stroke-linejoin: miter; stroke-miterlimit: 10; fill: rgb(0,0,0); fill-rule: nonzero; opacity: 1;" transform=" matrix(1 0 0 1 0 0) " stroke-linecap="round" />
	<path d="M 15.682 33.795 l -2.495 0.407 c -0.315 0.051 -0.529 0.348 -0.477 0.663 l 1.655 10.139 c 0.051 0.315 0.348 0.529 0.663 0.477 l 12.07 -1.97 c 0.315 -0.051 0.529 -0.348 0.477 -0.663 L 25.92 32.71 c -0.051 -0.315 -0.348 -0.529 -0.663 -0.477 l -2.495 0.407" style="stroke: none; stroke-width: 1; stroke-dasharray: none; stroke-linecap: butt; stroke-linejoin: miter; stroke-miterlimit: 10; fill: rgb(239,217,106); fill-rule: nonzero; opacity: 1;" transform=" matrix(1 0 0 1 0 0) " stroke-linecap="round" />
	<path d="M 19.172 34.316 c -0.481 0 -0.905 -0.347 -0.986 -0.837 c -0.09 -0.545 0.279 -1.06 0.824 -1.15 l 0.127 -0.021 c 0.542 -0.089 1.06 0.279 1.15 0.824 c 0.09 0.545 -0.279 1.06 -0.824 1.15 l -0.127 0.021 C 19.281 34.312 19.226 34.316 19.172 34.316 z" style="stroke: none; stroke-width: 1; stroke-dasharray: none; stroke-linecap: butt; stroke-linejoin: miter; stroke-miterlimit: 10; fill: rgb(0,0,0); fill-rule: nonzero; opacity: 1;" transform=" matrix(1 0 0 1 0 0) " stroke-linecap="round" />
	<path d="M 14.935 46.489 c -0.759 0 -1.43 -0.55 -1.557 -1.323 l -1.654 -10.14 c -0.068 -0.416 0.03 -0.833 0.276 -1.175 c 0.246 -0.342 0.611 -0.568 1.027 -0.636 l 2.495 -0.407 c 0.549 -0.086 1.059 0.281 1.148 0.826 s -0.281 1.059 -0.826 1.148 l -2.078 0.339 l 1.518 9.305 l 11.236 -1.834 l -1.518 -9.305 l -2.079 0.339 c -0.55 0.092 -1.059 -0.281 -1.148 -0.826 c -0.089 -0.545 0.281 -1.059 0.826 -1.148 l 2.495 -0.407 c 0.416 -0.067 0.833 0.03 1.176 0.276 c 0.342 0.246 0.567 0.61 0.636 1.026 l 1.654 10.14 c 0.068 0.415 -0.03 0.833 -0.276 1.175 c -0.246 0.343 -0.611 0.569 -1.027 0.636 l -12.069 1.97 C 15.104 46.482 15.019 46.489 14.935 46.489 z" style="stroke: none; stroke-width: 1; stroke-dasharray: none; stroke-linecap: butt; stroke-linejoin: miter; stroke-miterlimit: 10; fill: rgb(0,0,0); fill-rule: nonzero; opacity: 1;" transform=" matrix(1 0 0 1 0 0) " stroke-linecap="round" />
	<path d="M 39.119 28.978 l -2.459 -0.586 c -0.31 -0.074 -0.622 0.118 -0.696 0.428 l -2.383 9.993 c -0.074 0.31 0.118 0.622 0.428 0.696 l 11.896 2.837 c 0.31 0.074 0.622 -0.118 0.696 -0.428 l 2.383 -9.993 c 0.074 -0.31 -0.118 -0.622 -0.428 -0.696 l -2.459 -0.586" style="stroke: none; stroke-width: 1; stroke-dasharray: none; stroke-linecap: butt; stroke-linejoin: miter; stroke-miterlimit: 10; fill: rgb(239,217,106); fill-rule: nonzero; opacity: 1;" transform=" matrix(1 0 0 1 0 0) " stroke-linecap="round" />
	<path d="M 42.651 30.911 c -0.077 0 -0.154 -0.009 -0.232 -0.027 l -0.125 -0.03 c -0.537 -0.128 -0.87 -0.667 -0.742 -1.204 s 0.668 -0.869 1.204 -0.742 l 0.125 0.03 c 0.537 0.128 0.87 0.667 0.742 1.204 C 43.514 30.602 43.104 30.911 42.651 30.911 z" style="stroke: none; stroke-width: 1; stroke-dasharray: none; stroke-linecap: butt; stroke-linejoin: miter; stroke-miterlimit: 10; fill: rgb(0,0,0); fill-rule: nonzero; opacity: 1;" transform=" matrix(1 0 0 1 0 0) " stroke-linecap="round" />
	<path d="M 46.039 43.361 c -0.121 0 -0.244 -0.014 -0.367 -0.043 L 33.777 40.48 c -0.846 -0.202 -1.37 -1.054 -1.169 -1.9 l 2.384 -9.994 c 0.097 -0.41 0.349 -0.757 0.708 -0.978 s 0.783 -0.288 1.193 -0.19 l 2.458 0.586 c 0.537 0.128 0.869 0.667 0.741 1.205 c -0.128 0.539 -0.666 0.87 -1.205 0.741 l -2.049 -0.488 l -2.187 9.171 l 11.075 2.641 l 2.187 -9.171 l -2.048 -0.488 c -0.537 -0.128 -0.869 -0.667 -0.741 -1.205 c 0.128 -0.538 0.67 -0.866 1.205 -0.741 l 2.459 0.586 c 0.41 0.098 0.757 0.35 0.978 0.708 c 0.221 0.359 0.288 0.783 0.19 1.193 l -2.383 9.992 C 47.4 42.873 46.752 43.361 46.039 43.361 z" style="stroke: none; stroke-width: 1; stroke-dasharray: none; stroke-linecap: butt; stroke-linejoin: miter; stroke-miterlimit: 10; fill: rgb(0,0,0); fill-rule: nonzero; opacity: 1;" transform=" matrix(1 0 0 1 0 0) " stroke-linecap="round" />
</g>
</g>
</svg>