<svg xmlns="http://www.w3.org/2000/svg" xmlns:xlink="http://www.w3.org/1999/xlink" version="1.1" width="256" height="256" viewBox="0 0 256 256" xml:space="preserve">
<desc>Created with Fabric.js 1.7.22</desc>
<defs>
</defs>
<g transform="translate(128 128) scale(0.87 0.87)" style="">
	<g style="stroke: none; stroke-width: 0; stroke-dasharray: none; stroke-linecap: butt; stroke-linejoin: miter; stroke-miterlimit: 10; fill: none; fill-rule: nonzero; opacity: 1;" transform="translate(-144.89999999999998 -144.90000000000003) scale(3.22 3.22)" >
	<circle cx="44.996" cy="49.996" r="21.396" style="stroke: none; stroke-width: 1; stroke-dasharray: none; stroke-linecap: butt; stroke-linejoin: miter; stroke-miterlimit: 10; fill: rgb(248,218,127); fill-rule: nonzero; opacity: 1;" transform="  matrix(1 0 0 1 0 0) "/>
	<path d="M 45 78.521 c -6.679 0 -13.173 -2.357 -18.286 -6.639 c -0.423 -0.354 -0.479 -0.985 -0.125 -1.408 c 0.354 -0.425 0.984 -0.481 1.409 -0.125 C 32.752 74.328 38.79 76.521 45 76.521 c 14.612 0 26.5 -11.888 26.5 -26.5 c 0 -14.612 -11.888 -26.5 -26.5 -26.5 c -14.278 0 -25.955 11.349 -26.481 25.5 h 4.343 c 0.552 0 1 0.447 1 1 s -0.448 1 -1 1 H 17.5 c -0.552 0 -1 -0.447 -1 -1 c 0 -15.715 12.785 -28.5 28.5 -28.5 s 28.5 12.785 28.5 28.5 S 60.715 78.521 45 78.521 z" style="stroke: none; stroke-width: 1; stroke-dasharray: none; stroke-linecap: butt; stroke-linejoin: miter; stroke-miterlimit: 10; fill: rgb(0,0,0); fill-rule: nonzero; opacity: 1;" transform=" matrix(1 0 0 1 0 0) " stroke-linecap="round" />
	<path d="M 45 90 C 22.956 90 5.021 72.065 5.021 50.021 c 0 -19.264 13.566 -35.634 32.38 -39.247 V 7.956 h -4.347 c -0.552 0 -1 -0.448 -1 -1 C 32.054 3.12 35.174 0 39.01 0 h 11.98 c 3.836 0 6.956 3.12 6.956 6.956 c 0 0.552 -0.447 1 -1 1 h -4.348 v 2.818 c 18.816 3.612 32.381 19.98 32.381 39.247 C 84.979 72.065 67.045 90 45 90 z M 39.401 11.492 c 0.001 0.01 0.002 0.021 0.003 0.03 c 0.044 0.518 -0.31 0.983 -0.822 1.07 C 20.294 15.706 7.021 31.447 7.021 50.021 C 7.021 70.963 24.058 88 45 88 c 20.942 0 37.979 -17.037 37.979 -37.979 c 0 -18.578 -13.277 -34.319 -31.571 -37.43 c -0.512 -0.087 -0.872 -0.552 -0.828 -1.07 c 0.003 -0.043 0.01 -0.086 0.019 -0.127 V 6.956 c 0 -0.552 0.447 -1 1 -1 h 4.246 C 55.381 3.701 53.381 2 50.99 2 H 39.01 c -2.39 0 -4.391 1.701 -4.854 3.956 h 4.246 c 0.552 0 1 0.448 1 1 V 11.492 z" style="stroke: none; stroke-width: 1; stroke-dasharray: none; stroke-linecap: butt; stroke-linejoin: miter; stroke-miterlimit: 10; fill: rgb(0,0,0); fill-rule: nonzero; opacity: 1;" transform=" matrix(1 0 0 1 0 0) " stroke-linecap="round" />
	<path d="M 42.764 61.947 H 29.556 c -0.394 0 -0.751 -0.231 -0.912 -0.591 c -0.162 -0.359 -0.097 -0.779 0.165 -1.073 l 11.595 -13.039 c 1.973 -2.218 1.773 -5.627 -0.445 -7.6 c -2.219 -1.972 -5.627 -1.773 -7.601 0.445 c -0.366 0.412 -0.999 0.45 -1.412 0.083 c -0.413 -0.367 -0.45 -0.999 -0.083 -1.412 c 2.705 -3.042 7.381 -3.316 10.424 -0.61 c 3.042 2.706 3.316 7.382 0.61 10.424 L 31.783 59.947 h 10.981 c 0.552 0 1 0.447 1 1 S 43.316 61.947 42.764 61.947 z" style="stroke: none; stroke-width: 1; stroke-dasharray: none; stroke-linecap: butt; stroke-linejoin: miter; stroke-miterlimit: 10; fill: rgb(0,0,0); fill-rule: nonzero; opacity: 1;" transform=" matrix(1 0 0 1 0 0) " stroke-linecap="round" />
	<path d="M 56.863 61.947 c -0.553 0 -1 -0.447 -1 -1 V 56.97 H 45.315 c -0.363 0 -0.697 -0.196 -0.874 -0.513 c -0.176 -0.317 -0.168 -0.704 0.023 -1.013 l 11.548 -18.687 c 0.234 -0.38 0.692 -0.56 1.124 -0.436 c 0.43 0.122 0.727 0.515 0.727 0.962 V 54.97 h 3.468 c 0.553 0 1 0.447 1 1 s -0.447 1 -1 1 h -3.468 v 3.978 C 57.863 61.5 57.416 61.947 56.863 61.947 z M 47.108 54.97 h 8.755 V 40.804 L 47.108 54.97 z" style="stroke: none; stroke-width: 1; stroke-dasharray: none; stroke-linecap: butt; stroke-linejoin: miter; stroke-miterlimit: 10; fill: rgb(0,0,0); fill-rule: nonzero; opacity: 1;" transform=" matrix(1 0 0 1 0 0) " stroke-linecap="round" />
	<path d="M 68.065 51.021 h -0.927 c -0.553 0 -1 -0.447 -1 -1 s 0.447 -1 1 -1 h 0.927 c 0.553 0 1 0.447 1 1 S 68.618 51.021 68.065 51.021 z" style="stroke: none; stroke-width: 1; stroke-dasharray: none; stroke-linecap: butt; stroke-linejoin: miter; stroke-miterlimit: 10; fill: rgb(0,0,0); fill-rule: nonzero; opacity: 1;" transform=" matrix(1 0 0 1 0 0) " stroke-linecap="round" />
	<path d="M 45 28.882 c -0.552 0 -1 -0.448 -1 -1 v -0.927 c 0 -0.552 0.448 -1 1 -1 s 1 0.448 1 1 v 0.927 C 46 28.435 45.552 28.882 45 28.882 z" style="stroke: none; stroke-width: 1; stroke-dasharray: none; stroke-linecap: butt; stroke-linejoin: miter; stroke-miterlimit: 10; fill: rgb(0,0,0); fill-rule: nonzero; opacity: 1;" transform=" matrix(1 0 0 1 0 0) " stroke-linecap="round" />
	<path d="M 45 74.086 c -0.552 0 -1 -0.447 -1 -1 v -0.927 c 0 -0.553 0.448 -1 1 -1 s 1 0.447 1 1 v 0.927 C 46 73.639 45.552 74.086 45 74.086 z" style="stroke: none; stroke-width: 1; stroke-dasharray: none; stroke-linecap: butt; stroke-linejoin: miter; stroke-miterlimit: 10; fill: rgb(0,0,0); fill-rule: nonzero; opacity: 1;" transform=" matrix(1 0 0 1 0 0) " stroke-linecap="round" />
</g>
</g>
</svg>